# xmcd CD database file
#
# Track frame offsets:
#	150
#	4825
#	25927
#	52212
#	75697
#	97867
#	129702
#	154645
#	175975
#	208652
#	227780
#	247300
#	269427
#
# Disc length: 3886 seconds
#
# Revision: 1
# Processed by: cddbd v1.5.2PL0 Copyright (c) Steve Scherf et al.
# Submitted via: CDex 1.70beta3
#
DISCID=b20f2c0d
DTITLE=Sunaga t experience - A Letter from Allnighters
DYEAR=2006
DGENRE=Jazz
TTITLE0=Jazz Allnighters　narr. Fumihiko Tachiki
TTITLE1=In Case of Emergency
TTITLE2=Metropoli_
TTITLE3=Love is a Bird　feat. Sheila Landis
TTITLE4=Nostalgic Eyes　feat. Mika Arisaka
TTITLE5=Versiliana Samba
TTITLE6=Dig the Nu Breed
TTITLE7=A Healing Blue　feat. Sheila Landis
TTITLE8=High at "NOON"(Dedicate to NOON Osaka)　feat. Arvin Homa Aya
TTITLE9=Sasuke 
TTITLE10=Cuba Libre 
TTITLE11=Edward Hopper
TTITLE12=Versiliana Samba The Five Corners Quintet Version [Bonus Track]
EXTD=YEAR: 2006
EXTT0=
EXTT1=
EXTT2=
EXTT3=
EXTT4=
EXTT5=
EXTT6=
EXTT7=
EXTT8=
EXTT9=
EXTT10=
EXTT11=
EXTT12=
PLAYORDER=
